<?xml version="1.0" encoding="UTF-8"?>
<svg width="36px" height="32px" viewBox="0 0 36 32" version="1.1" xmlns="http://www.w3.org/2000/svg" xmlns:xlink="http://www.w3.org/1999/xlink">
    <!-- Generator: Sketch 57.1 (83088) - https://sketch.com -->
    <title>Shape</title>
    <desc>Created with Sketch.</desc>
    <g id="Page-1" stroke="none" stroke-width="1" fill="none" fill-rule="evenodd">
        <g id="Home-Copy" transform="translate(-75.000000, -626.000000)" fill="var(--icon-color, currentColor)" fill-rule="nonzero">
            <path d="M95.146758,627.534062 L110.496078,654.232128 C111.676795,656.277544 110.710754,658 108.34932,658 L77.6506803,658 C75.2892465,658 74.3232054,656.277544 75.5039223,654.232128 L90.853242,627.534062 C92.0339589,625.488646 93.9660411,625.488646 95.146758,627.534062 Z M92.5871126,628.530904 L77.2360482,655.231998 C76.8180028,655.956199 76.8428361,656 77.6506803,656 L108.34932,656 C109.157164,656 109.181997,655.956199 108.762207,655.228969 L93.4146321,628.533932 C93.0036822,627.822023 92.9963178,627.822023 92.5871126,628.530904 Z M93.6,647.3 C94,647.3 94.4,647.5 94.7,647.8 C95,648.1 95.2,648.5 95.2,648.9 C95.2,649.3 95,649.7 94.7,650 C94.4,650.3 94,650.5 93.6,650.5 C93.2,650.5 92.8,650.3 92.5,650 C92.2,649.7 92,649.3 92,648.9 C92,648.5 92.2,648.1 92.5,647.8 C92.8,647.5 93.2,647.3 93.6,647.3 Z M95.1,638 L94.7,645.7 L92.5,645.7 L92.1,638 L95.1,638 Z" id="Shape"></path>
        </g>
    </g>
</svg>
