<svg xmlns="http://www.w3.org/2000/svg" xmlns:xlink="http://www.w3.org/1999/xlink" width="794px" height="240px"><defs/><defs><path id="a" d="M0 0h794v240H0z"/></defs><g fill="none" fill-rule="evenodd"><g><mask id="b" fill="#fff"><use xlink:href="#a"/></mask><use fill="#F8F8F8" xlink:href="#a"/><g fill="#E1E7E8" fill-rule="nonzero" mask="url(#b)"><g transform="translate(-138 -47)"><path id="e" d="M346.8 78.4l-3.5-7-.1-.1-16.7-32.9-.2-.3-13-9-.5-.1h-.4c-.2.2-.4.5-.4.8v15.9l16.8 32.8 2.1 4.1.7 1.2.9 1.9c.4.8 1.2 1.3 2.1 1.3.4 0 .7 0 1.1-.2l5.7-3 2.2-1 2-1.1c1-.4 1.4-1.2 1.4-2.1 0-.5 0-.9-.2-1.2zm-19.2-33.6l13.6 26.8-2.1 1.1-3-5.5L323.8 43l2-3 1.9 4.8zm5.7 30.4l-15.5-29.4.2-.5 1-2.9 2.8 1 .4.1L337.8 73l-4.5 2.3zM324.5 39l-2 2.9-3.6-1.2h-.2c-.3 0-.7.2-.8.5l-1.2 3.9-3-.3V31.5l10.8 7.4zm-7 12.8l-3.8-5.9 3.3.3L329 70l3 6-2 1-12.6-25.2zm27.4 28.5l-4.8 2.4-2.3 1.2-3 1.4-.4.1c-.3 0-.6-.1-.7-.4l-.6-1.2-.6-1.1-2.2-4.1 11.6-5.8 3.3 6.3.1.4c0 .5 0 .7-.4.8z" style="mix-blend-mode:multiply"/><path id="f" d="M250.2 272.3l10.4-26.6c0-.3 0-.6-.2-.9a9 9 0 01-2-9.7c1.1-3 3.8-5 6.8-5.4l-2.6 6.6c-.2.3-.2.6-.2 1 0 1 .6 2 1.6 2.4l3.4 1.3c.3.2.6.2.9.2 1 0 2-.7 2.3-1.7l2.7-6.6a8.4 8.4 0 011.4 8.6 9.6 9.6 0 01-3.3 4.2 9 9 0 01-5 1.6c-.3 0-.6.3-.7.5l-10.3 26.5c-.1.3-.1.6.1.9a9 9 0 012 9.7c-1.1 3-3.8 5-6.8 5.4l2.7-6.5.2-1c0-.5-.2-1-.4-1.5-.2-.3-.7-.7-1.2-.9l-3.4-1.2c-.3-.2-.6-.2-.9-.2-1 0-2 .6-2.3 1.6l-2.7 6.7a8.4 8.4 0 01-1.4-8.7 9.6 9.6 0 013.3-4.1 9 9 0 015-1.7c.2 0 .5-.2.6-.5m16.2-44.3a10.3 10.3 0 00-10.2 10.4c0 2.7.9 5.3 2.8 7.3l-10 25.6a10.9 10.9 0 00-9.3 6.8 10.1 10.1 0 002.7 11.3l.6.1h.1c.3 0 .5-.2.6-.5l3-7.7a1 1 0 011.4-.6l3.4 1.2.4.3.1.6v.4l-3 7.8c-.2.2-.2.5 0 .7.1.2.4.3.6.3a10.3 10.3 0 0010.2-10.4c0-2.7-.9-5.3-2.8-7.3l10-25.6a10.9 10.9 0 009.3-6.8 10.1 10.1 0 00-2.7-11.3l-.6-.1h-.1c-.3 0-.5.2-.6.5l-3 7.7a1 1 0 01-1 .6h-.4l-3.3-1.4a1 1 0 01-.6-.9v-.4l3-7.7c.2-.3.2-.6 0-.7l-.6-.2" style="mix-blend-mode:multiply"/><path d="M459.7 56.8h.1l.6.3.4.4 5.8 5.8-1 1-.6-.5-4.7-4.7v19h13v1.6h-13.8c-.2 0-.4 0-.5-.2a.7.7 0 01-.2-.6V59.5l-4.5 4.3-.5.5-.5-.5-.6-.5 5.8-5.8.3-.2v-.1h.1V57c.2-.2.5-.3.8-.3zM457.9 37c7.3 0 13.5 4.2 16.5 10.5 6.6.8 11.6 6.4 11.6 13.3 0 7.4-6 13.4-13.3 13.4h-8.2v-1.6h8.2a11.7 11.7 0 0011.7-11.8c0-6.3-4.6-11.3-10.6-11.8l-.6-.5a17 17 0 00-15.3-10h-.4c-4.5.2-8.5 2-11.5 5a17 17 0 00-4.7 14.1c0 .3-.2.6-.5.8a7.5 7.5 0 00-2 12 7.4 7.4 0 005.1 2.2h11.7v1.6h-11.7c-5 0-8.9-4-8.9-9a9 9 0 014.7-8l-.1-1.6c0-10.3 8.1-18.6 18.3-18.6zM416.5 267c7.5 0 13.5 6 13.5 13.2 0 2.3-.9 4.8-2 7.3a85 85 0 01-10.5 15.5h-1.9l-3.7-4.7c-2.3-3-5-7-6.8-10.8-1.2-2.5-2.1-5-2.1-7.3 0-7.3 6-13.2 13.5-13.2zm0 1.6a12 12 0 00-11.8 11.6c0 1.7.6 4 1.7 6.2 1 2.3 2.4 4.7 3.9 7 2.4 3.7 5 6.9 6.2 8.3l.6-.7a99.3 99.3 0 009.4-14c1.2-2.6 1.9-5 2-6.8 0-3.2-1.4-6-3.5-8.2a12 12 0 00-8.4-3.4zm0 5.1a5.9 5.9 0 110 11.7c-3.3 0-6-2.6-6-5.8 0-3.3 2.7-5.9 6-5.9zm0 1.5c-1.2 0-2.3.5-3.1 1.3-.8.7-1.3 1.8-1.3 3 0 1.3.5 2.4 1.3 3.1.8.8 1.9 1.3 3.1 1.3 1.2 0 2.3-.5 3.1-1.3a4.3 4.3 0 000-6.2 4.5 4.5 0 00-3.1-1.2z" style="mix-blend-mode:multiply"/><path id="c" d="M142 170.4c4.2 0 7.8 1 10.6 3a9.8 9.8 0 014.2 8v1.8l-.3.6-.6.2h-27.7c-.2 0-.4 0-.6-.2a.7.7 0 01-.2-.6v-1.8c0-3.2 1.6-6 4.2-8s6.3-3 10.4-3zm0 1.6h-.5c-3.7.1-6.8 1.2-9 2.7a8 8 0 00-3.5 6.7v1h26v-1a8 8 0 00-3.6-6.7 15.5 15.5 0 00-9.4-2.7zm16.3-13.6c3.2 0 5.8 2.5 5.8 5.7 0 2.5-1.6 4.6-3.9 5.4l-1.5-.1h-.1l1.6.1c2.3.3 4.2 1 5.7 2.1 1.9 1.4 3 3.4 3 5.7l.1.3v1.2c0 .2 0 .4-.3.6l-.4.2H158.5l-.4-1.3v-.3h9.2v-.4c0-2-.8-3.5-2.4-4.7a11 11 0 00-6.2-1.9h-.9c-1.5 0-3 .4-4.2.9-.5-.5-1-.8-1.7-1.1a12 12 0 014-1.3h.5l-.3-.1a5.6 5.6 0 01-3.6-5.3c0-3.2 2.6-5.7 5.8-5.7zm-32.6 0c3.2 0 5.8 2.5 5.8 5.7 0 2.5-1.6 4.6-3.9 5.4h.5c1.2.2 2.4.5 3.4 1l.6.2-1.7 1c-1.2-.4-2.7-.7-4.2-.7h-.9a11 11 0 00-6.2 1.8 5.5 5.5 0 00-2.4 4.4v.7h9.3l-.4 1.3v.3h-9.8c-.2 0-.4 0-.5-.2a.7.7 0 01-.3-.5v-1.3c0-2.4 1.2-4.6 3.1-6a12 12 0 015.7-2 5.6 5.6 0 01-3.9-5.4c0-3.2 2.6-5.7 5.8-5.7zM142 155c4.3 0 7.7 3.4 7.8 7.7a7.7 7.7 0 01-7.4 7.6h-.7c-1.5 0-3-.6-4.2-1.4a7.4 7.4 0 01-3.2-6.2c0-4.2 3.5-7.7 7.7-7.7zm-17.9 14.4h-.3.3zm2 0zm-1.7 0zm.3 0h.1-.1.2zm.6 0h-.4.4zm16.7-12.7a6 6 0 00-4.3 1.8 5.9 5.9 0 000 8.4 6 6 0 003 1.6l1 .1h.5l1.1-.1c1-.3 2-.8 3-1.6a5.9 5.9 0 000-8.4 6 6 0 00-4.3-1.8zm16.3 3.3a4 4 0 00-4.1 4 4 4 0 003.8 4.1h.5c1.1 0 2-.4 2.7-1.1a4 4 0 001.2-3 4 4 0 00-4.1-4zm-32.6 0a4 4 0 00-4.1 4 4 4 0 003.9 4.1h.4c1 0 2-.4 2.7-1.1a4 4 0 001.2-3 4 4 0 00-4-4z" style="mix-blend-mode:multiply"/><path id="d" d="M193 47a24 24 0 100 48 24 24 0 000-48zm4.2 7.4c0 .4.3.6.6.7h.4l-.3.1c-.7.2-1.7.5-2.7 1l-.7.5a20.3 20.3 0 00-3.3 3.9l-.6-.5c-.3-.3-.8-.4-1.3-.4h-.2c-.8 0-1.5 0-2.3.3a3 3 0 00-1 .7c-.4.3-.6.7-.8 1.2-.3.6-.3 1-.3 1.5v.6c-.5-.2-.8-.3-1-.6l-.1-.2-1-2.2-.5-1-.4-.6c-.2-.2-.5-.2-.8-.3h-.2l-.3-2v-.4l.2-.5c.1-.3.6-.6.9-1l.5-.8c.2-.3.3-.7.3-1 0-.5-.1-.9-.3-1.3v-.2c2.3-1.3 4.8-2.2 7.5-2.7l5.8-.2-.6.3-1.6.8c-.3.2-.4.2-.6.5l-.2.3-.2.6v.4l.2.2.6.6 1.3.9.4.3v.1c.2.2.3.3.5.3h.4c.7 0 1.2-.3 1.6-.6l1.5-1.6c.2-.3.4-.4.7-.5l.5-.2c.2 0 .5 0 .7.2l.2.4.5 1h-.2l-1.8.2-1 .2-.8.3c-.1 0-.3.4-.2.7zm-16.8-1.8l1.3-.8zm17.9-3.3l1.4.5a4 4 0 00-1.5.5c-.8.5-1.2 1.2-1.7 1.7l-.6.5c-.1 0-.2 0-.3.2l-1.4-1.1-.3-.2 1.1-.6 2.5-1 .8-.5zm10.5 37.5a22.4 22.4 0 01-31.5 0 22.4 22.4 0 013.1-34l.2.5-.2.5-.9 1a3 3 0 00-.6.8c-.2.2-.2.7-.3 1v.6c0 1.8.6 3.9 1.8 5.5.2.1.4.3.7.3h.4v.3l.4.7.2.3.2.4c.8.6 1.8 1 2.7 1.1l2.3.6c.3.1.4.2.5.4l.8.7c.2.3.6.5 1 .7-.4.8-.7 1.8-.7 2.9 0 .7.2 1.5.4 2.2l1 1.4c.4.5 1 .8 1.4 1.1.5.4.8.6 1 1l.3 1.3v2.1c0 .7 0 1.5.2 2.2.2.8.5 2 1 3a7 7 0 001.6 2.4l.2.1v.1h.4c.4 0 .7 0 1-.3.3-.3.4-.6.5-1l.1-1c0-.5 0-1-.2-1.4l.4-.1.5-.5.4-1v-.5l.6-.2.6-.5.5-.8.5-.5 1.3-1.1.8-.8.3-.2.2-.3 1.3-2c.3-.7.5-1.4.5-2 0-.6-.2-1.1-.5-1.6-.2-.5-.6-1-1.1-1.4l-.5-.2-1-.3-1.4-.3h-.3v-.6l-.4-.4c-.2 0-.3-.3-.5-.3l-3-1.8c-1.3-.5-2.4-1-3.8-1-.6 0-1.2.2-1.8.5l-.8.7-.3-.5V66l-.2-.6c-.1-.3-.4-.7-.8-.8V64l-.1-.8-.5-.5h-.9l-1.2.5-.6.2v-.6c.2-.3.3-.6.5-.7l.8-.3c.3 0 .9 0 1.4-.2h.1l.4.1.8.6.3.3.3.2c0 .1.2.2.5.2h.1l.3-.1h.2v-.2h.1l1.8-2.3 1.2-1.5.5-.5.4-.2c.9-.5 1.6-.6 2.3-.9.8-.1 1.7-.4 2.6-1 .2-.2.4-.5.3-.8 0-.2 0-.3-.2-.4l.7-.2a3 3 0 001-.4l.3-.4.2-.7c0-.3-.1-.6-.5-.8l-.1-.1-.5-.8v-.5c2.5 1 5 2.3 6.9 4.2 4.4 3.4 6.6 9.3 6.6 15.5 0 6.2-2.5 11.8-6.5 15.8zm-21.6-22.4l.4-.2-.1.3h-.3zm12 6c.1.2.3.3.4.3l.2.2.4.2 1.9.4.8.2h.3c.5.4.6.6.8.9.2.2.2.5.2.8 0 .3-.1.8-.4 1.3l-1 1.8-.5.4-1.9 1.7c-.7.6-.9 1.2-1 1.4l-.2.2h-.6c-.4 0-.7.3-.8.5v1l-.1.6-.1.1h-.7c-.3 0-.6.2-.7.4-.2.4-.1.8.1 1l.1.2c.1.2.3.8.3 1.3v.4a5 5 0 01-.8-1.4c-.4-.8-.6-1.7-.7-2.5L195 80v-.6l-.1-1.7a7 7 0 00-.5-1.8c-.2-.5-.6-.8-1-1.2l-1.3-1c-.4-.4-.8-.7-1-1.1-.2-.5-.3-1-.3-1.6 0-1 .4-2 1-2.8.2-.3.5-.6.9-.8.3-.2.5-.2.8-.2.9 0 1.9.3 3 .8 1 .4 1.9 1 2.7 1.6v.3c-.2.2-.1.3 0 .5z" style="mix-blend-mode:multiply"/><path d="M735.5 297.5l5.8-5.7.2-.2 4.8-4.8c.4-.4.7-1 .7-1.6 0-.6-.3-1.2-.7-1.6l-7-7c-.3-.3-1-.6-1.5-.6-.6 0-1.2.3-1.6.7l-5 5-5.8 5.7c-2.5-2.5-5-5-6.8-7l-2.3-2.5-.8-.9c-.6-.6-1.3-.8-1.9-.8-.4 0-.8 0-1.1.2a3 3 0 00-.9.6l-6.6 6.7c-.6.6-.9 1.2-.9 1.9 0 .8.4 1.5.9 2l.9.8 9.4 9.3-7 7v.3l-4.3 13c0 .2 0 .5.2.7l.6.3h.2l13.3-4c.2 0 .3 0 .4-.2l6.8-6.8 6.9 7 2.3 2.3 1 1c.4.4 1.2.7 1.8.7.7 0 1.4-.3 1.9-.8l6.7-6.7c.5-.5.6-1.1.7-1.8 0-.5-.1-1-.6-1.5l-10.7-10.7zm1.8-19.7l.4-.1.4.1 7 7 .1.4-.1.4-4.4 4.3-7.7-7.7 4.3-4.4zm-21 31.4h-2.8v-2.8l20.6-20.6 3 3-20.8 20.4zm-3.6-16.5l2-2-1.1-1.2-2 2c-1.1-1-2-2-2.9-2.7l4.7-4.7-1.2-1.2-4.7 4.7-1.4-1.4c-.1-.2-.3-.5-.3-.8 0-.2 0-.4.3-.6l6.7-6.7.3-.3h.5c.1 0 .4 0 .7.3.4.4 5.1 5.6 10 10.5l-7.8 7.9-3.8-3.8zm19-9.3l1.3 1.2-20.5 20.5-2-.5 21.3-21.2zM706 316.7l3.5-10.6 2.4.5v3.4c0 .2 0 .4.2.6l.6.2h3.4l.7 2.7-10.8 3.2zm12.2-4.1l-.6-2.3 20.7-20.4 1.3 1.3-21.4 21.4zm26.6-2.5l-6.7 6.8c0 .1-.4.3-.7.3a1 1 0 01-.7-.3l-1.4-1.5 4.8-4.7-1.2-1.2-4.8 4.7-2.7-2.8 2-2-1.2-1.2-2 2-3.5-3.6 7.8-7.8a58949091.4 58949091.4 0 0110.5 10.8c0 .1 0 .4-.2.5zM566.5 223h.1c.2 0 .4.2.6.4 2.1 2.7 5.4 4.4 9 4.4h.5c3 0 5.9-1.4 9-3.6l.5-.1h.4c.2.2.4.5.4.8v29.4c0 .1-.8 2.8-3.7 6.1-3 3.4-8 7.2-16.6 9.6h-.4a33.2 33.2 0 01-16.6-9.6c-2.9-3.3-3.7-6-3.7-6.1v-29.5c0-.3.2-.6.4-.7l.4-.1c.2 0 .4 0 .5.2 3.2 2.2 6.2 3.5 9.4 3.5 3.7 0 7-1.7 9.1-4.4.2-.2.5-.3.7-.3zm0 2a13.1 13.1 0 01-9.8 4.4c-3.2 0-6.1-1.2-9-3V254.3l.5 1.1a19 19 0 002.8 4c2.6 3 7.4 6.6 15.5 9 8-2.4 12.6-6 15.4-9 2.4-2.7 3.3-5 3.4-5.5v-27.5c-2.9 1.8-5.8 3-9 3h-.4c-3.7-.1-7-1.7-9.4-4.3zm4 9.9c.1 0 .4 0 .6.2l.2.6v5.1h5.2c.2 0 .3.1.5.3l.2.5v8c0 .2 0 .4-.2.5l-.6.3h-5v5c0 .3-.2.5-.3.6l-.6.3h-7.9l-.6-.3a.8.8 0 01-.2-.6v-5h-5c-.3 0-.5-.1-.7-.3a.8.8 0 01-.2-.6v-7.9c0-.2 0-.4.2-.5l.6-.3h5v-5c0-.3.2-.5.3-.7l.6-.2zm-.8 1.7h-6.3v5c0 .3 0 .4-.2.6l-.6.3h-5v6.2h5c.2 0 .4 0 .6.3l.2.5v5.1h6.3v-5c0-.3 0-.5.2-.6.2-.2.3-.3.6-.3h5v-6.2h-5c-.3 0-.4-.1-.6-.3a.8.8 0 01-.2-.6v-5z" style="mix-blend-mode:multiply"/><use width="100%" height="100%" transform="translate(541 -67)" xlink:href="#c"/><use width="100%" height="100%" transform="translate(621 -8)" xlink:href="#d"/><use width="100%" height="100%" transform="translate(600 46)" xlink:href="#e"/><use width="100%" height="100%" transform="translate(621 12)" xlink:href="#f"/></g></g></g><g fill-rule="nonzero"><path fill="#003147" d="M162.9 104.7l-.8 6h-8.2V138H146v-27.2h-8.6v-6H163zm18 7c2.1 0 3.9.7 5.1 2a8 8 0 011.9 5.7V138h-7.6v-17.3c0-1.3-.2-2.2-.6-2.7-.4-.5-1-.7-1.8-.7-1.5 0-3 1-4.4 3.2V138h-7.6v-35.6l7.6-.8v13.6c1-1.1 2.2-2 3.3-2.6 1.2-.6 2.6-.9 4-.9zm35 13l-.2 2.8h-15.8c.2 2.1.8 3.6 1.8 4.5 1 .9 2.3 1.3 4 1.3 1 0 2-.2 3-.6 1-.3 2-.9 3-1.7l3.2 4.3c-3 2.3-6.3 3.5-10 3.5-4 0-7.2-1.2-9.4-3.6a14 14 0 01-3.3-9.8c0-2.6.4-5 1.3-7 1-2 2.3-3.7 4.1-4.9 1.8-1.2 4-1.8 6.5-1.8a11 11 0 018.6 3.5c2 2.3 3.1 5.5 3.1 9.6zm-7.5-2.1c0-4-1.5-5.9-4.2-5.9-1.3 0-2.3.5-3 1.5-.7 1-1.2 2.5-1.3 4.7h8.5v-.3zm318.3-18.7c2.5 0 4.7.4 6.5 1a15 15 0 015 3.3l-3.6 4.3a11.3 11.3 0 00-7.3-2.8c-1.4 0-2.5.3-3.3.8-.8.6-1.2 1.4-1.2 2.4 0 .8.2 1.4.6 1.8.3.5 1 1 1.8 1.4l4 1.5c3.4 1 6 2.4 7.5 4 1.6 1.5 2.4 3.8 2.4 6.7a9.7 9.7 0 01-6.1 9.2c-2 .9-4.3 1.3-7 1.3-2.8 0-5.2-.4-7.3-1.3-2-.8-3.9-2-5.4-3.4l4-4.4c1.3 1 2.6 1.9 4 2.4 1.3.6 2.8.9 4.4.9 1.6 0 3-.4 3.9-1.1 1-.7 1.4-1.7 1.4-3 0-.9-.2-1.5-.5-2.1-.4-.6-1-1-1.9-1.5-.8-.5-2-1-3.7-1.5a18 18 0 01-7.9-4 8.6 8.6 0 01-2.3-6.3c0-1.9.5-3.6 1.5-5 1-1.5 2.5-2.6 4.3-3.4 1.8-.8 4-1.2 6.2-1.2zm38.8 20.9l-.1 2.7h-15.8c.3 2.1.9 3.6 1.8 4.5 1 .9 2.3 1.3 4 1.3 1 0 2-.2 3-.6 1-.3 2-.9 3.1-1.7l3.1 4.3c-3 2.3-6.3 3.5-9.9 3.5-4.1 0-7.3-1.2-9.5-3.6a14 14 0 01-3.3-9.8c0-2.6.4-5 1.4-7 .9-2 2.3-3.7 4-4.9 1.8-1.2 4-1.8 6.5-1.8a11 11 0 018.6 3.5c2.1 2.3 3.1 5.5 3.1 9.6zm-7.4-2.2c0-4-1.4-5.9-4.1-5.9-1.3 0-2.4.5-3 1.5-.8 1-1.2 2.5-1.4 4.7h8.5v-.3zm25.5-10.8c1 0 1.8.1 2.6.3l-1.2 7.4c-1-.3-1.7-.4-2.3-.4a4 4 0 00-3.5 1.6 12 12 0 00-1.8 4.7V138h-7.6v-25.5h6.6l.7 5a9 9 0 012.6-4.2c1.1-1 2.5-1.5 4-1.5zm27.4.7l-8 25.5h-9l-8.2-25.5h8.3l4.5 19.7 4.7-19.7h7.7zm25 12.3l-.2 2.7H620c.2 2.1.8 3.6 1.8 4.5 1 .9 2.3 1.3 4 1.3 1 0 2-.2 3-.6 1-.3 2-.9 3-1.7l3.2 4.3c-3 2.3-6.3 3.5-10 3.5-4 0-7.2-1.2-9.4-3.6a14 14 0 01-3.4-9.8c0-2.6.5-5 1.4-7 1-2 2.3-3.7 4.1-4.9 1.8-1.2 4-1.8 6.5-1.8a11 11 0 018.6 3.5c2 2.3 3.1 5.5 3.1 9.6zm-7.5-2.2c0-4-1.5-5.9-4.2-5.9-1.3 0-2.3.5-3 1.5-.7 1-1.2 2.5-1.3 4.7h8.5v-.3zm25.5-10.8c1 0 1.8.1 2.6.3l-1.2 7.4c-1-.3-1.8-.4-2.4-.4a4 4 0 00-3.4 1.6 12 12 0 00-1.8 4.7V138h-7.6v-25.5h6.6l.6 5a9 9 0 012.6-4.2c1.2-1 2.5-1.5 4-1.5z"/><path fill="#00A6E2" d="M329 125.2l-2.7 2.2A22.5 22.5 0 01316 132l-1-.1-1-.5-.8-.8-.8-1.2a17.3 17.3 0 008-4.7c1-1 1.8-2.1 2.4-3.2a7 7 0 00.8-3.5c0-1-.2-2.1-.5-3-.4-.8-.9-1.5-1.5-2a7.6 7.6 0 00-5.2-2c-1.4 0-2.5.2-3.5.7-1 .4-2 1-2.9 1.8l-2.2 2.7a18.3 18.3 0 00-2.5 6.6l-.3 3.3v.7l-.6.4a22.5 22.5 0 01-10.3 4.5h-1l-1-.5-.8-.8-.8-1.2a17.3 17.3 0 008-4.7c1-1 1.8-2.1 2.4-3.3a7 7 0 00.8-3.5c0-1-.2-2-.5-2.8-.4-.9-.9-1.6-1.5-2.2a7.6 7.6 0 00-5.2-2c-1.4 0-2.5.3-3.5.8-1 .4-2 1-2.9 1.8-.8.8-1.5 1.7-2.2 2.7a18.3 18.3 0 00-2.5 6.4l-.6.3a6 6 0 01-2.6.5 2 2 0 01-.8-.2c-.3-.1-.5-.3-.7-.6l-.5-1-.2-1.7v-1.4l.4-1.9.3-1.7.1-1.4-.2-1.1c-.1-.3-.3-.6-.6-.8a2 2 0 00-1-.5c-.2-.2-.6-.3-1-.3-1 0-1.9.4-2.6.9-.8.5-1.5 1.2-2 2a22 22 0 00-3 5h-.2l-.1-2.8v-2.5-1.3l-.2-.7c-.1-.2-.4-.3-.7-.3l-1-.2c-.5 0-1 0-1.1.2a1 1 0 00-.7.3 1 1 0 00-.5.6l-.4 1c-.3.6-.6 1.4-.8 2.4l-.7 3-1.4 1a17.3 17.3 0 01-8.5 2h-.5l-.4-.2h-.4c-.1 0-.3-.2-.7-.2l-.6.1-.8.5.1-.5a86.4 86.4 0 0011.5-20.2c.6-1.6 1.1-3.1 1.4-4.5.3-1.4.5-2.6.5-3.8a7 7 0 00-.6-3c-.4-.9-.8-1.6-1.4-2l-2-1.2a7 7 0 00-2-.3c-1.6 0-3 .6-4.3 1.5-1.3 1-2.6 2.2-3.6 3.9-1.1 1.6-2 3.6-3 5.9a72 72 0 00-2.3 7c-.7 2.5-1.2 5.2-1.8 7.8l-1.2 7.8-1 7.2-.4 6-.3 4.2-.1 1.8v3.5l.5 3.6.8 3.3c.4 1 .8 2 1.3 2.7.5.9 1.3 1.5 2 1.9.7.5 1.6.7 2.6.7s2-.2 2.8-.6c.8-.4 1.5-1 2.2-1.7.6-.6 1-1.5 1.6-2.3l1.2-2.8a30.4 30.4 0 001.3-5.5l.3-2v-1c0-1.4-.2-2.8-.6-4.2l-1.2-3.8a26 26 0 00-1.8-3.8c1.3 0 2.5-.2 3.9-.4l3.6-.8 1.9-.6-.1.8-.4 3.5-.1 2.9v2.1a5 5 0 001.6 3.2c.4.3 1.1.5 1.9.5.3 0 .6 0 .9-.2.3 0 .5-.3.8-.6l.7-1.1c.2-.5.5-1 .7-1.9l5-14h.5a21 21 0 001.7 6.6c.5 1 1.2 1.7 2 2.3.9.6 2 .8 3.4.8a8 8 0 002.3-.3l1.7-.6.4 1.8a10.1 10.1 0 005.2 6.3c1.4.6 2.9 1 4.6 1 1.2 0 2.3-.2 3.3-.5a24.9 24.9 0 006-2.5l2.6-1.6 1-.7c.3.6.8 1.2 1.2 1.7.9 1 2 2 3.2 2.6 1.4.6 3 1 4.7 1 1 0 2.2-.2 3.2-.5a24.9 24.9 0 006-2.5l2.6-1.6c1.9-1.3 3.6-2.8 5.2-4.5l-3.4-4zm-81.1-13.4a63.5 63.5 0 016-18.8c.3-.5 1-.8 1.9-.8.5 0 .8.2 1.1.7.3.5.4 1.2.4 2.2 0 .7-.3 1.8-1 3-.5 1.4-1.2 3-2.2 4.8l-3 5.8a361 361 0 00-3.4 6.4c0-1 0-2.2.2-3.3zm1.1 30.8c0 1-.2 2-.4 2.8-.2 1-.5 1.7-.8 2.2-.4.6-1 .8-1.5.8-.2 0-.5 0-.7-.4-.2-.2-.4-.8-.5-1.6-.2-.9-.3-2-.4-3.7V136v-1.7l.1-2.1.2-2.5.2-2.3.3-1.6.2-.6c.2 0 .6.2.8.7.2.5.5 1.1.7 2l.7 2.7.6 3.1.4 3 .2 2.4v3.4zm40.9-19.3c0-.6 0-1.1.2-1.7 0-.7.3-1.3.5-1.9.2-.6.5-1.1.9-1.6a4.3 4.3 0 013.5-1.5c.4 0 .8.2 1.1.7.3.6.4 1.3.4 2s-.2 1.3-.7 2c-.5.6-1 1.2-1.7 1.7l-2.2 1.3c-.8.3-1.5.6-2.1.6v-1.6zm21.9 0c0-.6 0-1.1.2-1.7 0-.7.3-1.3.5-1.9.2-.6.5-1.1 1-1.6a4.3 4.3 0 013.5-1.5c.3 0 .7.2 1 .7.3.6.4 1.3.4 2s-.2 1.3-.7 2c-.5.6-1 1.2-1.7 1.7l-2.2 1.3c-.8.3-1.5.6-2.1.6v-1.6z"/><path fill="#003147" d="M348.3 138l-2.9-5.4-2.7-5.4h-5.9V138h-7.6V106h12.2c3.4 0 6.5.8 9 2.5 2.6 1.6 3.8 4.3 3.8 8a9 9 0 01-1.3 5c-.9 1.5-2 2.6-3.4 3.5a204.2 204.2 0 017.2 13h-8.4zm-7-25.8h-4.4v8.8h4.5c1.5 0 2.7-.4 3.6-1a4 4 0 001.5-3.4c0-1.5-.4-2.7-1.4-3.4-1-.7-2.2-1-3.9-1zM407.3 138h-13v-32h13c4.9 0 8.7 1.5 11.2 4.4 2.6 3 3.8 6.7 3.8 11.4 0 4.9-1.3 8.8-4 11.8a14.5 14.5 0 01-11 4.3zm-.1-25.8h-5.4v19.5h5c2.1 0 4-.8 5.3-2.4 1.4-1.7 2.1-4.1 2.1-7.6 0-3-.6-5.2-1.8-7-1-1.7-2.9-2.5-5.2-2.5zM435 106v31.8h-7.7V106zM449.1 106v19.5c0 2.2.7 3.9 1.8 5a6 6 0 004.4 1.6c1.8 0 3.3-.6 4.4-1.7a6.7 6.7 0 001.7-5V106h7.7v20c0 3.9-1.2 7-3.8 9.1a14.4 14.4 0 01-10 3.3c-4.1 0-7.5-1.1-10-3.3-2.6-2.1-3.8-5.2-3.8-9.2v-19.9h7.6zM473.7 114.2a8 8 0 013-6.3c2.1-1.8 5-2.6 8.6-2.6 1.6 0 3.1.2 4.8.7 1.6.5 3 1 4.3 1.9l-2.4 5.4c-1.4-.5-2.6-1-3.6-1.2-.9-.3-2-.4-3.1-.4-1.2 0-2 .2-2.7.7-.7.5-1 1.1-1 1.8 0 1 .5 1.7 1.5 2.2l3.7 2c2.3 1.2 4.4 2.6 6.5 4.4a8 8 0 013 6.5c0 2.7-1.1 4.8-3.2 6.6a14.1 14.1 0 01-9.2 2.6 24 24 0 01-10-2.6l2.3-6c.9.5 2 1 3.4 1.4 1.5.4 3 .8 4 .8 1.6 0 2.7-.4 3.5-.9.8-.5 1.1-1.2 1.1-2 0-.7-.5-1.5-1.6-2.2l-3.6-2a39.2 39.2 0 01-6.3-4.2c-2-1.6-3-3.8-3-6.6zM378.6 106l12.3 31.8H383l-2.4-6.7h-11.4l-2.5 6.7h-7.5l12-31.9h7.4zm-3.8 9.6l-3.4 9.6h7l-3.6-9.6z"/></g></g></svg>