<?xml version="1.0" encoding="UTF-8"?>
<svg width="45px" height="45px" viewBox="0 0 45 45" version="1.1" xmlns="http://www.w3.org/2000/svg" xmlns:xlink="http://www.w3.org/1999/xlink">
    <!-- Generator: Sketch 57.1 (83088) - https://sketch.com -->
    <title>Icon/Home</title>
    <desc>Created with Sketch.</desc>
    <g id="Icon/Home" stroke="none" stroke-width="1" fill="none" fill-rule="evenodd">
        <rect id="Rectangle" x="0" y="0" width="45" height="45"></rect>
        <g id="octo-signal" transform="translate(11.000000, 11.000000)" fill-rule="nonzero">
            <path d="M21.3323646,16.2752381 C20.3804133,16.2752381 19.5582735,15.6180952 19.3202856,14.72 C19.9260729,14.9390476 20.5534953,15.0704762 21.2241884,15.0704762 C22.1761397,15.0704762 22.9333738,14.3038095 22.9333738,13.34 C22.9333738,12.3761905 22.1761397,11.6095238 21.2241884,11.6095238 C20.0775197,11.6095238 19.0822978,10.667619 19.0822978,9.50666667 C19.0822978,9.35333333 19.0822978,9.04666667 19.0822978,9.04666667 L19.0822978,7.71047619 C19.0822978,3.46095238 15.6855622,0 11.4666869,0 C7.26944678,0 3.85107597,3.43904762 3.85107597,7.71047619 L3.85107597,9.04666667 C3.85107597,9.04666667 3.85107597,9.33142857 3.85107597,9.50666667 C3.85107597,10.667619 2.85585409,11.6095238 1.7091854,11.6095238 C0.757234039,11.6095238 0,12.3761905 0,13.34 C0,14.3038095 0.757234039,15.0704762 1.7091854,15.0704762 C2.46641944,15.0704762 3.18038296,14.9171429 3.82944071,14.632381 C3.61308813,15.5742857 2.79094832,16.2752381 1.79572644,16.2752381 C0.843775072,16.2752381 0.086541033,17.0419048 0.086541033,18.0057143 C0.086541033,18.9695238 0.843775072,19.7361905 1.79572644,19.7361905 C3.28855926,19.7361905 4.65158053,19.1228571 5.64680241,18.1371429 L5.64680241,20.4152381 C5.64680241,21.3790476 6.40403644,22.1457143 7.35598781,22.1457143 C8.30793917,22.1457143 9.06517321,21.3790476 9.06517321,20.4152381 L9.06517321,17.1733333 L9.73586622,17.1733333 L9.73586622,21.2695238 C9.73586622,22.2333333 10.4931003,23 11.4450516,23 C12.397003,23 13.154237,22.2333333 13.154237,21.2695238 L13.154237,17.1733333 L13.82493,17.1733333 L13.82493,20.4152381 C13.82493,21.3790476 14.5821641,22.1457143 15.5341154,22.1457143 C16.4860668,22.1457143 17.2433008,21.3790476 17.2433008,20.4152381 L17.2433008,17.9180952 C18.260158,19.0352381 19.688085,19.7142857 21.2890941,19.7142857 C22.2410455,19.7142857 22.9982795,18.947619 22.9982795,17.9838095 C23.04155,17.0419048 22.2626807,16.2752381 21.3323646,16.2752381 Z" id="Path" fill="#00A6E2"></path>
            <circle id="Oval" fill="#FFFFFF" cx="12" cy="8" r="4"></circle>
            <circle id="SVGID_23_" fill="#FFFFFF" cx="12" cy="8" r="4"></circle>
            <path d="M13.5,10 C12.1270492,10 11,8.87295082 11,7.5 C11,6.12704918 12.1270492,5 13.5,5 C14.8729508,5 16,6.12704918 16,7.5 C16,8.87295082 14.8729508,10 13.5,10 Z" id="Path" fill="#303030"></path>
        </g>
    </g>
</svg>