<?xml version="1.0" encoding="UTF-8"?>
<svg id="Layer_1" xmlns="http://www.w3.org/2000/svg" viewBox="0 0 411.23 145"><defs><style>.cls-1{fill:#00274e;stroke-width:0px;}</style></defs><path class="cls-1" d="M6.83,40.19C18.71,16.37,43.3,0,71.73,0s53.01,16.36,64.89,40.17c-43.69-15.32-85.63-15.46-129.8.02ZM117.58,63.8c-2.66,8.02-3.21,20.04-3.21,28.7,0,1.6-1.29,2.9-2.89,2.9h-12.44c-1.67,0-2.99-1.4-2.88-3.07.76-11.51.76-25.59-2.45-35.41-7.42-22.76-36.55-22.76-43.97,0-3.21,9.82-3.22,23.9-2.44,35.41.11,1.67-1.21,3.07-2.88,3.07h-12.44c-1.61,0-2.89-1.3-2.89-2.9.01-8.67-.53-20.68-3.21-28.7-5.18-15.56-21.93-16.85-25.15,0-1.33,6.95-.65,16.86.37,25.03,7.41,32.17,36.21,56.17,70.63,56.17s63.23-24,70.63-56.18c1.01-8.16,1.69-18.08.37-25.02-3.22-16.85-19.98-15.56-25.15,0ZM256.73,63.01h-6.3V27h16.75c3.2,0,5.78.82,7.75,2.45,1.97,1.63,2.95,3.85,2.95,6.65,0,1.77-.42,3.28-1.25,4.55-.83,1.27-1.95,2.23-3.35,2.9-.36.17-.74.32-1.13.45.6.19,1.18.41,1.73.7,1.53.8,2.75,1.93,3.65,3.4.9,1.43,1.35,3.13,1.35,5.1s-.47,3.7-1.4,5.2c-.9,1.47-2.18,2.6-3.85,3.4-1.63.8-3.57,1.2-5.8,1.2h-11.1ZM258.13,41.4h7.25c1.57,0,2.75-.37,3.55-1.1.83-.77,1.25-1.88,1.25-3.35s-.4-2.57-1.2-3.3c-.77-.77-1.92-1.15-3.45-1.15h-7.4v8.9ZM258.13,57.51h7.9c1.67,0,2.92-.45,3.75-1.35.87-.93,1.3-2.22,1.3-3.85s-.47-2.98-1.4-3.95c-.9-.97-2.2-1.45-3.9-1.45h-7.65v10.6ZM181.93,27h-7.7v36.01h7.7V27ZM235.21,49.57l10.94-12.06h-8.65l-8.6,10.18v-20.68h-7.5v36.01h7.5v-11.06l8.85,11.06h8.9l-11.44-13.44ZM214.18,63.01v-17.25c0-2.67-.75-4.78-2.25-6.35-1.5-1.6-3.67-2.4-6.5-2.4-2.37,0-4.37.57-6,1.7-1.31.9-2.35,2.08-3.15,3.5v-4.7h-7.35v25.5h7.5v-13.7c0-1.27.25-2.37.75-3.3.53-.93,1.25-1.67,2.15-2.2.93-.53,1.98-.8,3.15-.8,1.37,0,2.4.35,3.1,1.05.73.7,1.1,1.75,1.1,3.15v15.8h7.5ZM338.78,63.01v-3.98c-.51,1.12-1.34,2.06-2.5,2.83-1.63,1.1-3.6,1.65-5.9,1.65s-4.37-.53-6.1-1.6c-1.7-1.1-3.02-2.63-3.95-4.6-.93-1.97-1.4-4.28-1.4-6.95s.48-5.05,1.45-7.05c.97-2,2.32-3.55,4.05-4.65,1.77-1.1,3.82-1.65,6.15-1.65s4.4.57,5.9,1.7c.97.72,1.69,1.61,2.15,2.66v-14.36h7.5v36.01h-7.35ZM338.73,50.25c0-2.33-.57-4.12-1.7-5.35-1.1-1.27-2.55-1.9-4.35-1.9s-3.17.63-4.3,1.9c-1.1,1.27-1.65,3.07-1.65,5.4s.55,4.12,1.65,5.35c1.13,1.23,2.6,1.85,4.4,1.85s3.2-.62,4.3-1.85c1.1-1.27,1.65-3.07,1.65-5.4ZM313.44,63.01v-25.5h-7.5v25.5h7.5ZM365.38,73.76c-3.53,0-6.42-.75-8.65-2.25-2.2-1.5-3.5-3.53-3.9-6.1h7.1c.27.63.83,1.12,1.7,1.45.9.33,2.03.5,3.4.5,2.27,0,3.92-.43,4.95-1.3,1.03-.87,1.55-2.22,1.55-4.05v-4.05c-.49,1.22-1.32,2.24-2.5,3.05-1.6,1.07-3.58,1.6-5.95,1.6s-4.25-.52-5.95-1.55c-1.67-1.07-2.97-2.55-3.9-4.45-.93-1.9-1.4-4.13-1.4-6.7s.48-4.87,1.45-6.8c.97-1.93,2.32-3.43,4.05-4.5,1.77-1.07,3.82-1.6,6.15-1.6s4.35.57,5.85,1.7c1.13.83,1.91,1.89,2.35,3.17v-4.37h7.35v24.4c0,3.67-1.22,6.55-3.65,8.65-2.43,2.13-5.77,3.2-10,3.2ZM371.63,49.8c0-2.27-.57-4-1.7-5.2-1.1-1.23-2.55-1.85-4.35-1.85s-3.17.62-4.3,1.85c-1.1,1.23-1.65,2.98-1.65,5.25s.55,4,1.65,5.2c1.13,1.2,2.6,1.8,4.4,1.8s3.2-.6,4.3-1.8c1.1-1.23,1.65-2.98,1.65-5.25ZM391.13,61.86c-2.1-1.13-3.73-2.7-4.9-4.7-1.13-2-1.7-4.3-1.7-6.9s.57-4.93,1.7-6.9c1.17-2,2.78-3.55,4.85-4.65,2.07-1.13,4.47-1.7,7.2-1.7s4.92.53,6.85,1.6c1.93,1.07,3.43,2.55,4.5,4.45,1.07,1.9,1.6,4.13,1.6,6.7,0,.53-.02,1.03-.05,1.5-.03.43-.08.85-.15,1.25h-18.91c.22,1.57.7,2.8,1.46,3.7,1.1,1.27,2.73,1.9,4.9,1.9,1.2,0,2.23-.2,3.1-.6.87-.4,1.52-1.05,1.95-1.95h7.05c-.83,2.47-2.27,4.42-4.3,5.85-2,1.4-4.58,2.1-7.75,2.1-2.83,0-5.3-.55-7.4-1.65ZM392.23,47.55h11.39c-.13-1.6-.6-2.83-1.44-3.65-.97-1-2.3-1.5-4-1.5-1.97,0-3.5.67-4.6,2-.64.81-1.09,1.86-1.35,3.15ZM313.69,26h-8v8.1h8v-8.1ZM294.7,38.7c-1.04.86-1.85,2.03-2.45,3.49v-4.69h-7.35v25.5h7.5v-13.3c0-2.07.57-3.52,1.7-4.35,1.13-.87,2.9-1.3,5.3-1.3.43,0,.8.02,1.1.05.3,0,.53.03.7.1v-7c-.3-.13-.77-.2-1.4-.2-2.03,0-3.73.57-5.1,1.7ZM403.88,104.35l-4.2-1.05c-1.43-.37-2.47-.82-3.1-1.35-.6-.53-.9-1.2-.9-2,0-.97.4-1.72,1.2-2.25.83-.57,2.02-.85,3.55-.85,1.63,0,2.92.33,3.85,1,.97.63,1.55,1.55,1.75,2.75h4.8c-.23-2.4-1.27-4.27-3.1-5.6-1.8-1.33-4.18-2-7.15-2s-5.37.67-7.1,2c-1.7,1.3-2.55,3.1-2.55,5.4,0,1.83.62,3.38,1.85,4.65,1.27,1.23,3.18,2.17,5.75,2.8l4.1.95c1.5.37,2.5.83,3,1.4.53.53.8,1.2.8,2,0,1.1-.45,1.95-1.35,2.55-.9.6-2.2.9-3.9.9-1.93,0-3.47-.38-4.6-1.15-1.1-.8-1.77-1.93-2-3.4h-4.8c.27,2.67,1.38,4.73,3.35,6.2s4.62,2.2,7.95,2.2,5.68-.65,7.45-1.95c1.8-1.3,2.7-3.1,2.7-5.4,0-1.9-.62-3.52-1.85-4.85-1.23-1.37-3.07-2.35-5.5-2.95ZM347.28,94.7c-1.19.92-2.08,2.2-2.7,3.8v-5h-4.95v25.5h5.2v-13.3c0-2.57.62-4.5,1.85-5.8,1.27-1.3,3.15-1.95,5.65-1.95.43,0,.8.02,1.1.05.3,0,.53.03.7.1v-4.9c-.3-.13-.83-.2-1.6-.2-2.03,0-3.78.57-5.25,1.7ZM383.97,93.5h-6.55l-10.95,11.04v-22.19h-5.2v36.65h5.2v-11.98l11.35,11.98h6.65l-13-13.37,12.5-12.13ZM330.14,99.3c1.1,1.97,1.65,4.25,1.65,6.85s-.55,4.87-1.65,6.9c-1.07,2-2.58,3.58-4.55,4.75-1.97,1.13-4.27,1.7-6.9,1.7s-4.88-.57-6.85-1.7c-1.97-1.17-3.5-2.75-4.6-4.75-1.1-2.03-1.65-4.33-1.65-6.9s.55-4.88,1.65-6.85c1.13-1.97,2.67-3.5,4.6-4.6,1.97-1.13,4.25-1.7,6.85-1.7s4.93.57,6.9,1.7c1.97,1.1,3.48,2.63,4.55,4.6ZM326.49,106.1c0-2.73-.73-4.88-2.2-6.45-1.43-1.6-3.3-2.4-5.6-2.4s-4.13.8-5.6,2.4c-1.43,1.6-2.15,3.75-2.15,6.45,0,1.83.32,3.43.95,4.8.67,1.37,1.58,2.43,2.75,3.2,1.2.77,2.55,1.15,4.05,1.15s2.92-.38,4.05-1.15c1.17-.77,2.08-1.83,2.75-3.2.67-1.37,1-2.97,1-4.8ZM290.83,112.77l-6.06-19.27h-4.5l-6.04,19.19-4.96-19.19h-5.35l7.8,25.5h4.55l6.17-18.99,6.08,18.99h4.55l7.8-25.5h-5.1l-4.94,19.27ZM198.28,111.86l-17.9-28.86h-6.15v36h5.1v-28.86l17.9,28.86h6.15v-36h-5.1v28.86ZM235.5,98.95c1,1.87,1.5,4.08,1.5,6.65,0,.4-.02.78-.05,1.15,0,.33-.03.68-.1,1.05h-19.57c.21,2.14.86,3.88,1.97,5.2,1.4,1.63,3.33,2.45,5.8,2.45,1.5,0,2.8-.3,3.9-.9,1.1-.63,1.92-1.55,2.45-2.75h4.9c-.83,2.4-2.25,4.28-4.25,5.65-1.97,1.37-4.33,2.05-7.1,2.05-2.57,0-4.83-.57-6.8-1.7-1.93-1.13-3.45-2.7-4.55-4.7s-1.65-4.3-1.65-6.9.53-4.93,1.6-6.9c1.1-2,2.63-3.55,4.6-4.65,1.97-1.1,4.22-1.65,6.75-1.65s4.6.53,6.4,1.6c1.83,1.03,3.23,2.48,4.2,4.35ZM231.82,103.9c-.2-1.98-.78-3.55-1.77-4.7-1.23-1.43-2.95-2.15-5.15-2.15-2.37,0-4.25.82-5.65,2.45-.98,1.14-1.6,2.61-1.88,4.4h14.44ZM251.78,85.7l-5.15,1.95v5.85h-5.1v4.15h5.1v13.65c0,2.7.68,4.75,2.05,6.15,1.4,1.37,3.58,2.05,6.55,2.05.83,0,1.58-.05,2.25-.15.67-.1,1.18-.23,1.55-.4v-4.2c-.33.13-.73.25-1.2.35-.47.1-1,.15-1.6.15-1.57,0-2.7-.32-3.4-.95s-1.05-1.62-1.05-2.95v-13.7h7.25v-4.15h-7.25v-7.8Z"/></svg>