<?xml version="1.0" encoding="UTF-8" standalone="no"?>
<svg
   xmlns:dc="http://purl.org/dc/elements/1.1/"
   xmlns:cc="http://creativecommons.org/ns#"
   xmlns:rdf="http://www.w3.org/1999/02/22-rdf-syntax-ns#"
   xmlns:svg="http://www.w3.org/2000/svg"
   xmlns="http://www.w3.org/2000/svg"
   xmlns:sodipodi="http://sodipodi.sourceforge.net/DTD/sodipodi-0.dtd"
   xmlns:inkscape="http://www.inkscape.org/namespaces/inkscape"
   height="36"
   viewBox="0 0 286 36"
   width="286"
   version="1.1"
   id="svg12"
   sodipodi:docname="networkradius-white.svg"
   inkscape:version="0.92.5 (2060ec1f9f, 2020-04-08)">
  <metadata
     id="metadata18">
    <rdf:RDF>
      <cc:Work
         rdf:about="">
        <dc:format>image/svg+xml</dc:format>
        <dc:type
           rdf:resource="http://purl.org/dc/dcmitype/StillImage" />
        <dc:title></dc:title>
      </cc:Work>
    </rdf:RDF>
  </metadata>
  <defs
     id="defs16" />
  <sodipodi:namedview
     pagecolor="#ffffff"
     bordercolor="#666666"
     borderopacity="1"
     objecttolerance="10"
     gridtolerance="10"
     guidetolerance="10"
     inkscape:pageopacity="0"
     inkscape:pageshadow="2"
     inkscape:window-width="640"
     inkscape:window-height="480"
     id="namedview14"
     showgrid="false"
     inkscape:zoom="4.8067909"
     inkscape:cx="143.43795"
     inkscape:cy="18"
     inkscape:current-layer="svg12" />
  <g
     fill="none"
     fill-rule="evenodd"
     id="g10"
     style="fill:#ffffff">
    <path
       d="m92.2 15.9c1.3 1.4 2 3.5 2 6.1 0 1.8-.3 3.4-1 4.7s-1.6 2.4-2.8 3.1-2.7 1.1-4.3 1.1c-5.2 0-7.8-2.8-7.8-8.4 0-1.8.3-3.4 1-4.7s1.6-2.3 2.9-3c1.2-.7 2.7-1 4.3-1 2.5-.1 4.4.6 5.7 2.1zm-46.4-6.4v5h4.2v3.4h-4.3v6.7c0 1 .1 1.7.3 2.1s.7.6 1.3.6c.4 0 .8-.1 1.3-.2.5-.2.9-.3 1.1-.5l1.1 2.3c-1.7 1.3-3.4 1.9-5.2 1.9-1.6 0-2.8-.5-3.4-1.5-.7-1-1-2.5-1-4.4v-7h-2.8v-3l2.8-.4v-4.2zm-15.9 4.2c2.2 0 3.9.6 5.1 1.9s1.8 3 1.8 5.2c0 .5 0 1-.1 1.4 0 .5-.1.7-.1.9l-10.1.1c0 1.3.4 2.2 1.1 2.9s1.5 1 2.6 1c.8 0 1.5-.1 2.3-.3s1.4-.4 1.9-.7c.5-.2.8-.4 1-.5l1.3 2.5s-.4.3-1.1.8-1.6.9-2.6 1.3-2.1.6-3.3.6c-2.6 0-4.5-.7-5.9-2.1s-2-3.5-2-6.1c0-1.8.3-3.3 1-4.7.7-1.3 1.6-2.4 2.8-3.1s2.7-1.1 4.3-1.1zm78.9.1c.4.1.8.2 1 .3s.4.1.5.2l-.2 5.9h-2.7l-.5-2.6c-.5 0-1 .1-1.5.4s-.9.5-1.3.8c-.3.3-.5.5-.5.5v8.1l3.1.8v2.4h-10.3v-2.4l2.4-.8v-9.9l-2.4-.8v-2.4l6.4-.1.284 1.985.012875-.05375c.065625-.1875.328125-.43125.703125-.73125.5-.4 1-.8 1.7-1.2s1.3-.5 1.9-.5c.5 0 .9 0 1.4.1zm-95.6 0c1.5 0 2.6.5 3.4 1.4.8 1 1.2 2.3 1.2 4v8.1l2.1.8v2.4h-8.4v-2.4l1.7-.8v-7.3c0-.7-.2-1.3-.6-1.8s-.9-.7-1.5-.7-1.1.1-1.6.4-.9.5-1.2.8-.5.5-.5.5v8l1.7.8v2.4h-8.7v-2.4l2.4-.8v-9.9l-2.4-.8v-2.4l6.5-.1.2 2.1s.3-.2 1-.7c.6-.4 1.4-.8 2.2-1.1s1.6-.5 2.5-.5zm53.4.1 3.4 11.6 1.8-8.5-1.9-.4v-2.4l7.8-.1v2.6l-1.6.3-4.1 13.5h-4.7l-2.3-7.8-.6-2.4-.8 3.3-2.2 6.8h-4.6l-4.2-13.4-1.3-.4v-2.4l8-.1v2.6l-1.9.3 2 8.6 3.2-11zm51.4-7v13.3h1.9l2.1-3.2-1.3-.4v-2.4l7.9-.1v2.6l-2.1.4-2.8 4 3.4 6.3 2.3.7v2.4h-5.6l-3.8-7.4h-2v4.2l1.7.8v2.4h-8.7v-2.4l2.4-.8v-17.2l-2.4-.6v-2.4zm-31.6 10.4c-1.2.1-2 .4-2.6 1.2-.5.7-.8 2-.8 3.8 0 1.7.3 2.9.8 3.7s1.3 1.2 2.4 1.2 1.9-.4 2.5-1.2.8-2.1.8-3.9c0-1.6-.2-2.8-.7-3.6s-1.3-1.2-2.4-1.2zm-56.9.1c-.8 0-1.5.3-2 .8-.5.6-.9 1.3-1 2.2h5.5c0-.9-.2-1.7-.6-2.2-.4-.6-1-.8-1.9-.8zm73.584-1.215c-.003907.0261111-.003676.0448611-.000782.0629167l.016782.0510833z"
       fill="#1274d3"
       id="path2"
       style="fill:#ffffff" />
    <g
       fill="#004575"
       fill-rule="nonzero"
       id="g8"
       style="fill:#ffffff">
      <path
         d="m220.6 12c.9 0 1.8.1 2.8.4.9.3 1.8.6 2.5 1l-1.3 3.1c-.8-.3-1.5-.5-2.1-.7s-1.2-.2-1.8-.2-1.2.1-1.5.4c-.4.3-.6.6-.6 1.1s.3.9.9 1.3c.6.3 1.3.7 2.1 1.1 1.3.7 2.5 1.5 3.7 2.4 1.2 1 1.8 2.2 1.8 3.7s-.6 2.7-1.9 3.7-3 1.5-5.2 1.5c-.9 0-1.9-.2-3.1-.5s-2.1-.7-2.7-1l1.3-3.4c.5.3 1.2.6 2 .8s1.6.4 2.3.4c.9 0 1.5-.2 2-.5.4-.3.7-.7.7-1.1s-.3-.8-.9-1.2-1.3-.8-2.1-1.2c-1.2-.6-2.4-1.4-3.6-2.4-1.3-.8-1.9-2.1-1.9-3.6 0-1.4.6-2.7 1.8-3.6 1.2-1 2.8-1.5 4.8-1.5zm-20.9.3v11.1c0 1.3.3 2.2 1 2.8s1.5.9 2.5.9 1.9-.3 2.5-.9c.7-.6 1-1.6 1-2.8v-11.1h4.4v11.4c0 2.2-.7 4-2.2 5.2-1.4 1.3-3.4 1.9-5.7 1.9-2.4 0-4.3-.6-5.7-1.9s-2.2-3-2.2-5.2v-11.4zm-61.1 0c2 0 3.7.5 5.2 1.4 1.5 1 2.2 2.5 2.2 4.6 0 1.1-.3 2.1-.8 2.9s-1.1 1.4-1.9 1.9c.7 1.2 1.4 2.5 2.1 3.7s1.4 2.5 2.1 3.7h-5.1c-.6-1-1.1-2-1.6-3.1-.5-1-1.1-2-1.6-3.1h-3.2v6.1h-4.4v-18.1zm20.4 0 6.9 17.7-4.3.5-1.4-3.8h-6.5l-1.4 3.8h-4.4l6.9-18.2zm16.6 0c2.8 0 5 .8 6.4 2.5s2.2 3.8 2.2 6.5c0 2.8-.8 5-2.4 6.7s-3.7 2.5-6.2 2.5h-7.5v-18.2zm16 0v18.2h-4.4v-18.2zm-16.1 3.6h-3v11.1h2.8c1.2 0 2.3-.5 3.1-1.4s1.2-2.4 1.2-4.3c0-1.6-.3-2.9-1-3.9s-1.7-1.5-3.1-1.5zm-18.7 1.9-1.9 5.4h4zm-18.4-1.9h-2.5v5h2.5c.9 0 1.6-.2 2.1-.7.5-.4.8-1.1.8-1.9 0-.9-.3-1.5-.8-1.9-.5-.3-1.2-.5-2.1-.5z"
         id="path4"
         style="fill:#ffffff" />
      <path
         d="m282.5 25.5c1.7 1 2.7 2.1 2.5 3.3 0 3.7-8.8 6.7-19.7 6.7s-19.7-3-19.7-6.7c0-1.2 1-2.3 2.7-3.3 3.4 2 9.8 3.3 17.1 3.3s13.7-1.3 17.1-3.3zm0-10.8c1.7.9 2.7 2.1 2.6 3.3 0 3.7-8.8 6.7-19.7 6.7s-19.7-3-19.7-6.7c0-1.2.9-2.3 2.6-3.3 3.4 2 9.8 3.3 17.1 3.3s13.7-1.3 17.1-3.3zm-17-14.2c10.8 0 19.7 3 19.7 6.7s-8.8 6.7-19.7 6.7-19.7-3-19.7-6.7 8.8-6.7 19.7-6.7z"
         id="path6"
         style="fill:#ffffff" />
    </g>
  </g>
</svg>
